<?xml version="1.0" standalone="no"?>
<!DOCTYPE svg PUBLIC "-//W3C//DTD SVG 20010904//EN"
 "http://www.w3.org/TR/2001/REC-SVG-20010904/DTD/svg10.dtd">
<svg version="1.0" xmlns="http://www.w3.org/2000/svg"
 width="211.000000pt" height="211.000000pt" viewBox="0 0 211.000000 211.000000"
 preserveAspectRatio="xMidYMid meet">
<metadata>
Created by potrace 1.16, written by Peter Selinger 2001-2019
</metadata>
<g transform="translate(0.000000,211.000000) scale(0.100000,-0.100000)"
fill="#000000" stroke="none">
<path d="M1009 1881 c-156 -40 -283 -115 -398 -236 -116 -122 -198 -269 -243
-435 -19 -71 -23 -110 -23 -240 0 -180 9 -227 70 -355 51 -109 106 -179 188
-241 142 -107 270 -148 457 -147 149 1 238 21 367 85 116 57 143 84 143 138 0
37 -6 49 -44 86 -25 26 -53 44 -66 44 -12 0 -55 -12 -94 -27 -63 -24 -85 -27
-196 -28 -122 0 -127 1 -198 34 -130 61 -192 155 -192 290 1 220 166 441 331
441 59 0 93 -12 123 -44 l22 -25 144 102 c252 179 362 291 346 349 -14 50
-183 154 -321 198 -101 32 -310 37 -416 11z"/>
</g>
</svg>
